<svg width="356" height="61" viewBox="0 0 356 61" fill="none" xmlns="http://www.w3.org/2000/svg">
<path d="M227.43 56L226.602 53.2812H222.438L221.609 56H219L223.031 44.5312H225.992L230.039 56H227.43ZM226.023 51.25L225.195 48.5938C225.143 48.4167 225.073 48.1901 224.984 47.9141C224.901 47.6328 224.815 47.349 224.727 47.0625C224.643 46.7708 224.576 46.5182 224.523 46.3047C224.471 46.5182 224.398 46.7839 224.305 47.1016C224.216 47.4141 224.13 47.7109 224.047 47.9922C223.964 48.2734 223.904 48.474 223.867 48.5938L223.047 51.25H226.023ZM235.641 56V44.5781H238.062V54H242.695V56H235.641ZM244.688 56V44.5781H247.109V56H244.688ZM252.367 56H249.984V44.5781H256.531V46.5625H252.367V49.5078H256.242V51.4844H252.367V56ZM265.344 56H258.766V44.5781H265.344V46.5625H261.188V49.0703H265.055V51.0547H261.188V54H265.344V56ZM282.258 50.2734C282.258 51.1536 282.148 51.9557 281.93 52.6797C281.711 53.3984 281.378 54.0182 280.93 54.5391C280.487 55.0599 279.924 55.4609 279.242 55.7422C278.56 56.0182 277.753 56.1562 276.82 56.1562C275.888 56.1562 275.081 56.0182 274.398 55.7422C273.716 55.4609 273.151 55.0599 272.703 54.5391C272.26 54.0182 271.93 53.3958 271.711 52.6719C271.492 51.9479 271.383 51.1432 271.383 50.2578C271.383 49.0755 271.576 48.0469 271.961 47.1719C272.352 46.2917 272.951 45.6094 273.758 45.125C274.565 44.6406 275.591 44.3984 276.836 44.3984C278.076 44.3984 279.094 44.6406 279.891 45.125C280.693 45.6094 281.286 46.2917 281.672 47.1719C282.062 48.0521 282.258 49.0859 282.258 50.2734ZM273.922 50.2734C273.922 51.0703 274.021 51.7578 274.219 52.3359C274.422 52.9089 274.737 53.3516 275.164 53.6641C275.591 53.9714 276.143 54.125 276.82 54.125C277.508 54.125 278.065 53.9714 278.492 53.6641C278.919 53.3516 279.229 52.9089 279.422 52.3359C279.62 51.7578 279.719 51.0703 279.719 50.2734C279.719 49.0755 279.495 48.1328 279.047 47.4453C278.599 46.7578 277.862 46.4141 276.836 46.4141C276.154 46.4141 275.596 46.5703 275.164 46.8828C274.737 47.1901 274.422 47.6328 274.219 48.2109C274.021 48.7839 273.922 49.4714 273.922 50.2734ZM287.008 56H284.625V44.5781H291.172V46.5625H287.008V49.5078H290.883V51.4844H287.008V56ZM301.969 56H299.547V46.5938H296.445V44.5781H305.07V46.5938H301.969V56ZM310.156 44.5781C311.193 44.5781 312.047 44.7031 312.719 44.9531C313.396 45.2031 313.898 45.5807 314.227 46.0859C314.555 46.5911 314.719 47.2292 314.719 48C314.719 48.5208 314.62 48.9766 314.422 49.3672C314.224 49.7578 313.964 50.0885 313.641 50.3594C313.318 50.6302 312.969 50.8516 312.594 51.0234L315.953 56H313.266L310.539 51.6172H309.25V56H306.828V44.5781H310.156ZM309.984 46.5625H309.25V49.6484H310.031C310.833 49.6484 311.406 49.5156 311.75 49.25C312.099 48.9792 312.273 48.5833 312.273 48.0625C312.273 47.5208 312.086 47.1354 311.711 46.9062C311.341 46.6771 310.766 46.5625 309.984 46.5625ZM324.383 56L323.555 53.2812H319.391L318.562 56H315.953L319.984 44.5312H322.945L326.992 56H324.383ZM322.977 51.25L322.148 48.5938C322.096 48.4167 322.026 48.1901 321.938 47.9141C321.854 47.6328 321.768 47.349 321.68 47.0625C321.596 46.7708 321.529 46.5182 321.477 46.3047C321.424 46.5182 321.352 46.7839 321.258 47.1016C321.169 47.4141 321.083 47.7109 321 47.9922C320.917 48.2734 320.857 48.474 320.82 48.5938L320 51.25H322.977ZM337.398 44.5781L333.516 56H330.875L327 44.5781H329.445L331.594 51.375C331.63 51.4896 331.69 51.7057 331.773 52.0234C331.857 52.3359 331.94 52.6693 332.023 53.0234C332.112 53.3724 332.172 53.6615 332.203 53.8906C332.234 53.6615 332.289 53.3724 332.367 53.0234C332.451 52.6745 332.531 52.3438 332.609 52.0312C332.693 51.7135 332.753 51.4948 332.789 51.375L334.953 44.5781H337.398ZM345.422 56H338.844V44.5781H345.422V46.5625H341.266V49.0703H345.133V51.0547H341.266V54H345.422V56ZM347.812 56V44.5781H350.234V54H354.867V56H347.812Z" fill="#C90016"/>
<path d="M11.718 25.83C13.4747 25.83 14.725 25.396 15.469 24.528C16.213 23.6393 16.585 22.3373 16.585 20.622V19.382L13.981 18.731V16.871H23.219V18.731L20.615 19.382V28H18.073L17.298 25.551C16.4093 26.543 15.4793 27.256 14.508 27.69C13.5573 28.1033 12.431 28.31 11.129 28.31C8.29767 28.31 6.03467 27.442 4.34 25.706C3.38933 24.7347 2.64533 23.505 2.108 22.017C1.59133 20.529 1.333 18.886 1.333 17.088C1.333 15.2487 1.60167 13.5437 2.139 11.973C2.697 10.3817 3.472 9.06933 4.464 8.036C5.31133 7.14733 6.31367 6.486 7.471 6.052C8.62833 5.59733 9.99233 5.37 11.563 5.37C12.803 5.37 13.826 5.53533 14.632 5.866C15.438 6.19667 16.2233 6.77533 16.988 7.602L17.608 5.68H20.243V12.996H17.422C17.1533 11.3427 16.5437 10.02 15.593 9.028C14.6423 8.01533 13.3403 7.509 11.687 7.509C10.757 7.509 9.982 7.664 9.362 7.974C8.742 8.284 8.20467 8.72833 7.75 9.307C7.17133 10.175 6.68567 11.2497 6.293 12.531C5.90033 13.7917 5.704 15.166 5.704 16.654C5.704 18.1007 5.87967 19.4957 6.231 20.839C6.603 22.1823 7.11967 23.3087 7.781 24.218C8.19433 24.776 8.742 25.1893 9.424 25.458C10.1267 25.706 10.8913 25.83 11.718 25.83ZM31.7641 8.129V25.675H39.2661L40.3201 20.312H42.9551V28H24.8201V26.202L27.7341 25.551V8.129L24.8201 7.478V5.68H34.9881V7.478L31.7641 8.129ZM66.3456 16.592C66.3456 18.3073 66.0976 19.9607 65.6016 21.552C65.1056 23.1433 64.3202 24.497 63.2456 25.613C62.3569 26.5223 61.2926 27.2043 60.0526 27.659C58.8126 28.093 57.3246 28.31 55.5886 28.31C53.8526 28.31 52.3646 28.093 51.1246 27.659C49.8846 27.225 48.8409 26.574 47.9936 25.706C47.1049 24.776 46.3816 23.567 45.8236 22.079C45.2862 20.5703 45.0176 18.9067 45.0176 17.088C45.0176 15.29 45.2862 13.6057 45.8236 12.035C46.3816 10.4437 47.1462 9.121 48.1176 8.067C48.9856 7.137 50.0292 6.455 51.2486 6.021C52.4679 5.587 53.9456 5.37 55.6816 5.37C57.3349 5.37 58.7919 5.57667 60.0526 5.99C61.3132 6.40333 62.4086 7.06467 63.3386 7.974C64.4132 9.04867 65.1779 10.3507 65.6326 11.88C66.1079 13.3887 66.3456 14.9593 66.3456 16.592ZM49.5126 16.499C49.5126 18.111 49.6572 19.537 49.9466 20.777C50.2566 22.017 50.6699 23.0297 51.1866 23.815C51.6826 24.5797 52.3026 25.1583 53.0466 25.551C53.7906 25.9437 54.6999 26.14 55.7746 26.14C57.7172 26.14 59.1846 25.458 60.1766 24.094C60.7139 23.3707 61.1272 22.42 61.4166 21.242C61.7059 20.064 61.8506 18.6587 61.8506 17.026C61.8506 15.3933 61.6956 13.9777 61.3856 12.779C61.0962 11.5597 60.6829 10.5677 60.1456 9.803C59.6082 9.01767 58.9469 8.439 58.1616 8.067C57.3969 7.695 56.5289 7.509 55.5576 7.509C54.5862 7.509 53.7389 7.695 53.0156 8.067C52.3129 8.41833 51.7239 8.91433 51.2486 9.555C50.0912 11.0843 49.5126 13.399 49.5126 16.499ZM86.7327 11.043C86.7327 11.8283 86.5467 12.562 86.1747 13.244C85.8233 13.926 85.3377 14.4943 84.7177 14.949C84.0977 15.4037 83.3847 15.6827 82.5787 15.786V15.91C84.1907 16.2407 85.4617 16.9227 86.3917 17.956C87.3217 18.9893 87.7867 20.2603 87.7867 21.769C87.7867 22.9263 87.4767 24.001 86.8567 24.993C86.2573 25.9643 85.4927 26.6877 84.5627 27.163C83.984 27.4523 83.271 27.6693 82.4237 27.814C81.5763 27.938 80.388 28 78.8587 28H68.6597V26.202L71.2637 25.551V8.129L68.6597 7.478V5.68H80.0057C82.1757 5.68 83.8497 6.207 85.0277 7.261C85.565 7.757 85.9783 8.33567 86.2677 8.997C86.5777 9.65833 86.7327 10.3403 86.7327 11.043ZM78.3317 17.491H75.2937V25.675H77.7737C78.7243 25.675 79.489 25.6233 80.0677 25.52C80.6463 25.4167 81.132 25.2513 81.5247 25.024C82.0827 24.7347 82.5373 24.28 82.8887 23.66C83.24 23.0193 83.4157 22.2857 83.4157 21.459C83.4157 20.7357 83.2813 20.126 83.0127 19.63C82.744 19.134 82.403 18.7207 81.9897 18.39C81.6177 18.1007 81.1423 17.8837 80.5637 17.739C79.985 17.5737 79.241 17.491 78.3317 17.491ZM75.2937 7.943V15.228H78.2387C79.6853 15.228 80.7497 14.8663 81.4317 14.143C81.7417 13.8537 82.0103 13.492 82.2377 13.058C82.465 12.6033 82.5787 12.0867 82.5787 11.508C82.5787 10.9293 82.465 10.4127 82.2377 9.958C82.0103 9.50333 81.7417 9.14167 81.4317 8.873C80.8117 8.253 79.7887 7.943 78.3627 7.943H75.2937ZM104.198 20.622H101.687L101.16 17.708H96.9125V25.675H105.438L106.306 21.087H109.034V28H89.9685V26.202L92.8825 25.551V8.129L89.9685 7.478V5.68H108.352V12.252H105.81L104.911 7.943H96.9125V15.383H101.16L101.687 12.438H104.198V20.622ZM111.242 5.68H130.648V12.655H128.664L127.672 8.005H122.96V25.458L126.246 26.202V28H115.644V26.202L118.93 25.458V8.005H114.187L113.226 12.655H111.242V5.68ZM148.933 16.158C148.561 16.4473 148.137 16.7263 147.662 16.995C147.207 17.2637 146.618 17.4807 145.895 17.646C145.998 17.7493 146.163 17.9353 146.391 18.204C146.618 18.452 146.835 18.7517 147.042 19.103L150.886 25.613L153.645 26.202V28H146.329V26.202L142.268 18.235H139.292V25.551L142.237 26.202V28H132.658V26.202L135.262 25.551V8.129L132.658 7.478V5.68H144.252C145.244 5.68 146.112 5.773 146.856 5.959C147.62 6.145 148.292 6.44467 148.871 6.858C149.615 7.37467 150.204 8.067 150.638 8.935C151.072 9.78233 151.289 10.64 151.289 11.508C151.289 12.376 151.072 13.2337 150.638 14.081C150.224 14.9077 149.656 15.6 148.933 16.158ZM139.292 15.972H142.795C143.931 15.972 144.872 15.6517 145.616 15.011C146.029 14.6597 146.349 14.1947 146.577 13.616C146.825 13.0167 146.949 12.376 146.949 11.694C146.949 11.074 146.825 10.516 146.577 10.02C146.329 9.50333 145.998 9.07967 145.585 8.749C145.233 8.45967 144.82 8.253 144.345 8.129C143.89 8.005 143.332 7.943 142.671 7.943H139.292V15.972ZM176.057 16.592C176.057 18.3073 175.809 19.9607 175.313 21.552C174.817 23.1433 174.031 24.497 172.957 25.613C172.068 26.5223 171.004 27.2043 169.764 27.659C168.524 28.093 167.036 28.31 165.3 28.31C163.564 28.31 162.076 28.093 160.836 27.659C159.596 27.225 158.552 26.574 157.705 25.706C156.816 24.776 156.093 23.567 155.535 22.079C154.997 20.5703 154.729 18.9067 154.729 17.088C154.729 15.29 154.997 13.6057 155.535 12.035C156.093 10.4437 156.857 9.121 157.829 8.067C158.697 7.137 159.74 6.455 160.96 6.021C162.179 5.587 163.657 5.37 165.393 5.37C167.046 5.37 168.503 5.57667 169.764 5.99C171.024 6.40333 172.12 7.06467 173.05 7.974C174.124 9.04867 174.889 10.3507 175.344 11.88C175.819 13.3887 176.057 14.9593 176.057 16.592ZM159.224 16.499C159.224 18.111 159.368 19.537 159.658 20.777C159.968 22.017 160.381 23.0297 160.898 23.815C161.394 24.5797 162.014 25.1583 162.758 25.551C163.502 25.9437 164.411 26.14 165.486 26.14C167.428 26.14 168.896 25.458 169.888 24.094C170.425 23.3707 170.838 22.42 171.128 21.242C171.417 20.064 171.562 18.6587 171.562 17.026C171.562 15.3933 171.407 13.9777 171.097 12.779C170.807 11.5597 170.394 10.5677 169.857 9.803C169.319 9.01767 168.658 8.439 167.873 8.067C167.108 7.695 166.24 7.509 165.269 7.509C164.297 7.509 163.45 7.695 162.727 8.067C162.024 8.41833 161.435 8.91433 160.96 9.555C159.802 11.0843 159.224 13.399 159.224 16.499ZM178.146 5.68H197.552V12.655H195.568L194.576 8.005H189.864V25.458L193.15 26.202V28H182.548V26.202L185.834 25.458V8.005H181.091L180.13 12.655H178.146V5.68ZM199.035 5.68H218.441V12.655H216.457L215.465 8.005H210.753V25.458L214.039 26.202V28H203.437V26.202L206.723 25.458V8.005H201.98L201.019 12.655H199.035V5.68ZM227.24 8.129V25.551L230.154 26.202V28H220.296V26.202L223.21 25.551V8.129L220.296 7.478V5.68H230.154V7.478L227.24 8.129ZM235.134 25.551V8.129L232.53 7.478V5.68H239.691L250.045 22.048V8.129L247.441 7.478V5.68H255.594V7.478L252.99 8.129V28H249.549L238.079 10.206V25.551L240.683 26.202V28H232.53V26.202L235.134 25.551ZM268.043 25.83C269.8 25.83 271.05 25.396 271.794 24.528C272.538 23.6393 272.91 22.3373 272.91 20.622V19.382L270.306 18.731V16.871H279.544V18.731L276.94 19.382V28H274.398L273.623 25.551C272.735 26.543 271.805 27.256 270.833 27.69C269.883 28.1033 268.756 28.31 267.454 28.31C264.623 28.31 262.36 27.442 260.665 25.706C259.715 24.7347 258.971 23.505 258.433 22.017C257.917 20.529 257.658 18.886 257.658 17.088C257.658 15.2487 257.927 13.5437 258.464 11.973C259.022 10.3817 259.797 9.06933 260.789 8.036C261.637 7.14733 262.639 6.486 263.796 6.052C264.954 5.59733 266.318 5.37 267.888 5.37C269.128 5.37 270.151 5.53533 270.957 5.866C271.763 6.19667 272.549 6.77533 273.313 7.602L273.933 5.68H276.568V12.996H273.747C273.479 11.3427 272.869 10.02 271.918 9.028C270.968 8.01533 269.666 7.509 268.012 7.509C267.082 7.509 266.307 7.664 265.687 7.974C265.067 8.284 264.53 8.72833 264.075 9.307C263.497 10.175 263.011 11.2497 262.618 12.531C262.226 13.7917 262.029 15.166 262.029 16.654C262.029 18.1007 262.205 19.4957 262.556 20.839C262.928 22.1823 263.445 23.3087 264.106 24.218C264.52 24.776 265.067 25.1893 265.749 25.458C266.452 25.706 267.217 25.83 268.043 25.83ZM306.699 11.043C306.699 11.8283 306.513 12.562 306.141 13.244C305.79 13.926 305.304 14.4943 304.684 14.949C304.064 15.4037 303.351 15.6827 302.545 15.786V15.91C304.157 16.2407 305.428 16.9227 306.358 17.956C307.288 18.9893 307.753 20.2603 307.753 21.769C307.753 22.9263 307.443 24.001 306.823 24.993C306.224 25.9643 305.459 26.6877 304.529 27.163C303.951 27.4523 303.238 27.6693 302.39 27.814C301.543 27.938 300.355 28 298.825 28H288.626V26.202L291.23 25.551V8.129L288.626 7.478V5.68H299.972C302.142 5.68 303.816 6.207 304.994 7.261C305.532 7.757 305.945 8.33567 306.234 8.997C306.544 9.65833 306.699 10.3403 306.699 11.043ZM298.298 17.491H295.26V25.675H297.74C298.691 25.675 299.456 25.6233 300.034 25.52C300.613 25.4167 301.099 25.2513 301.491 25.024C302.049 24.7347 302.504 24.28 302.855 23.66C303.207 23.0193 303.382 22.2857 303.382 21.459C303.382 20.7357 303.248 20.126 302.979 19.63C302.711 19.134 302.37 18.7207 301.956 18.39C301.584 18.1007 301.109 17.8837 300.53 17.739C299.952 17.5737 299.208 17.491 298.298 17.491ZM295.26 7.943V15.228H298.205C299.652 15.228 300.716 14.8663 301.398 14.143C301.708 13.8537 301.977 13.492 302.204 13.058C302.432 12.6033 302.545 12.0867 302.545 11.508C302.545 10.9293 302.432 10.4127 302.204 9.958C301.977 9.50333 301.708 9.14167 301.398 8.873C300.778 8.253 299.755 7.943 298.329 7.943H295.26ZM324.164 20.622H321.653L321.126 17.708H316.879V25.675H325.404L326.272 21.087H329V28H309.935V26.202L312.849 25.551V8.129L309.935 7.478V5.68H328.318V12.252H325.776L324.877 7.943H316.879V15.383H321.126L321.653 12.438H324.164V20.622ZM334.34 25.551V8.129L331.736 7.478V5.68H338.897L349.251 22.048V8.129L346.647 7.478V5.68H354.8V7.478L352.196 8.129V28H348.755L337.285 10.206V25.551L339.889 26.202V28H331.736V26.202L334.34 25.551Z" fill="#967117"/>
</svg>
